<?xml version="1.0" encoding="UTF-8"?>
<svg width="383px" height="477px" viewBox="0 0 383 477" version="1.1" xmlns="http://www.w3.org/2000/svg" xmlns:xlink="http://www.w3.org/1999/xlink">
    <!-- Generator: Sketch 57 (83077) - https://sketch.com -->
    <title>placeholder</title>
    <desc>Created with Sketch.</desc>
    <g id="Page-1" stroke="none" stroke-width="1" fill="none" fill-rule="evenodd">
        <g id="placeholder" fill="#573E92" fill-rule="nonzero">
            <path d="M191.4,0 C86,0 0.2,85.8 0.2,191.2 C0.2,203.2 1.3,215.3 3.6,227.1 C3.7,227.8 4.1,229.9 4.9,233.5 C7.8,246.4 12.1,259.1 17.7,271.2 C38.3,319.7 83.6,394.2 183,474 C185.5,476 188.5,477 191.5,477 C194.5,477 197.5,476 200,474 C299.3,394.2 344.7,319.7 365.3,271.2 C370.9,259.1 375.2,246.5 378.1,233.5 C378.9,229.9 379.3,227.8 379.4,227.1 C381.6,215.3 382.8,203.2 382.8,191.2 C382.6,85.8 296.8,0 191.4,0 Z M352.6,222.4 C352.6,222.6 352.5,222.8 352.5,223 C352.4,223.5 352.1,225 351.6,227.3 C351.6,227.4 351.6,227.4 351.6,227.5 C349.1,238.7 345.4,249.6 340.5,260.1 C340.4,260.2 340.4,260.4 340.3,260.5 C321.6,304.8 280.6,372.4 191.4,446.1 C102.2,372.4 61.2,304.8 42.5,260.5 C42.4,260.4 42.4,260.2 42.3,260.1 C37.5,249.7 33.8,238.7 31.2,227.5 C31.2,227.4 31.2,227.4 31.2,227.3 C30.6,225 30.4,223.5 30.3,223 C30.3,222.8 30.2,222.6 30.2,222.3 C28.2,212 27.2,201.6 27.2,191.1 C27.2,100.6 100.9,26.9 191.4,26.9 C281.9,26.9 355.6,100.6 355.6,191.1 C355.6,201.7 354.6,212.2 352.6,222.4 Z" id="Shape"></path>
            <path d="M191.4,71.9 C124.5,71.9 70,126.4 70,193.3 C70,260.2 124.5,314.7 191.4,314.7 C258.3,314.7 312.8,260.2 312.8,193.3 C312.8,126.4 258.3,71.9 191.4,71.9 Z M191.4,287.7 C139.3,287.7 97,245.3 97,193.3 C97,141.3 139.4,98.9 191.4,98.9 C243.4,98.9 285.8,141.3 285.8,193.3 C285.8,245.3 243.5,287.7 191.4,287.7 Z" id="Shape"></path>
        </g>
    </g>
</svg>